<svg width="24" height="24" viewBox="0 0 24 24" fill="none" xmlns="http://www.w3.org/2000/svg">
<path d="M0 6.03934V8.66668H3.752L0 6.03934ZM3.10933 20.6667H8.66667V16.7753L3.10933 20.6667ZM15.3333 16.776V20.6667H20.89L15.3333 16.776ZM0 15.3333V17.9607L3.75333 15.3333H0ZM20.8913 3.33334H15.3333V7.22468L20.8913 3.33334ZM24 17.9613V15.3333H20.246L24 17.9613ZM24 8.66668V6.03934L20.2473 8.66668H24ZM8.66667 3.33334H3.10933L8.66667 7.22468V3.33334Z" fill="#00247D"/>
<path d="M16.7601 15.3333L23.2347 19.8673C23.5504 19.5412 23.7776 19.1398 23.8947 18.7013L19.0847 15.3333H16.7601ZM8.66674 15.3333H7.2394L0.765403 19.8667C1.11274 20.22 1.55807 20.4727 2.0574 20.59L8.66674 15.962V15.3333ZM15.3334 8.66667H16.7607L23.2347 4.13334C22.8812 3.77521 22.4335 3.52443 21.9434 3.41L15.3334 8.038V8.66667ZM7.2394 8.66667L0.765403 4.13334C0.449515 4.45943 0.222111 4.86077 0.104736 5.29934L4.91474 8.66667H7.2394Z" fill="#CF1B2B"/>
<path d="M24 14H14V20.6667H15.3333V16.776L20.89 20.6667H21.3333C21.6875 20.6664 22.038 20.5955 22.3644 20.4583C22.6909 20.321 22.9867 20.1201 23.2347 19.8673L16.76 15.3333H19.0847L23.8947 18.7013C23.9567 18.4767 24 18.244 24 18V17.9613L20.246 15.3333H24V14ZM0 14V15.3333H3.75333L0 17.9607V18C0 18.7273 0.292667 19.3853 0.765333 19.8667L7.23933 15.3333H8.66667V15.962L2.05733 20.5893C2.25333 20.636 2.456 20.6667 2.66667 20.6667H3.10933L8.66667 16.7753V20.6667H10V14H0ZM24 6.00001C24.0006 5.30129 23.7256 4.63052 23.2347 4.13334L16.7607 8.66668H15.3333V8.03801L21.9433 3.41001C21.7436 3.36102 21.5389 3.3353 21.3333 3.33334H20.8913L15.3333 7.22468V3.33334H14V10H24V8.66668H20.2473L24 6.03934V6.00001ZM8.66667 3.33334V7.22468L3.10933 3.33334H2.66667C2.3125 3.33375 1.96196 3.4047 1.63551 3.54205C1.30907 3.67941 1.01325 3.88042 0.765333 4.13334L7.23933 8.66668H4.91467L0.104667 5.29934C0.0387712 5.5272 0.00357173 5.76284 0 6.00001L0 6.03934L3.752 8.66668H0V10H10V3.33334H8.66667Z" fill="#EEEEEE"/>
<path d="M14 10V3.33334H10V10H0V14H10V20.6667H14V14H24V10H14Z" fill="#CF1B2B"/>
</svg>
