<svg width="24" height="24" viewBox="0 0 24 24" fill="none" xmlns="http://www.w3.org/2000/svg">
<path d="M12 2.39999V7.79999C12 8.27738 12.1896 8.73522 12.5272 9.07279C12.8647 9.41035 13.3226 9.59999 13.8 9.59999H19.2V19.8C19.2 20.2774 19.0103 20.7352 18.6727 21.0728C18.3352 21.4103 17.8773 21.6 17.4 21.6H11.6916C12.5878 20.5147 13.1136 19.1712 13.1922 17.7659C13.2707 16.3605 12.8979 14.9669 12.1283 13.7884C11.3586 12.6099 10.2323 11.7084 8.91387 11.2155C7.59546 10.7225 6.15399 10.664 4.79995 11.0484V4.19999C4.79995 3.7226 4.98959 3.26477 5.32716 2.9272C5.66472 2.58964 6.12256 2.39999 6.59995 2.39999H12ZM13.2 2.69999V7.79999C13.2 7.95912 13.2632 8.11174 13.3757 8.22426C13.4882 8.33678 13.6408 8.39999 13.8 8.39999H18.9L13.2 2.69999ZM12 17.4C12 18.8322 11.431 20.2057 10.4183 21.2184C9.40563 22.2311 8.03212 22.8 6.59995 22.8C5.16778 22.8 3.79427 22.2311 2.78157 21.2184C1.76888 20.2057 1.19995 18.8322 1.19995 17.4C1.19995 15.9678 1.76888 14.5943 2.78157 13.5816C3.79427 12.5689 5.16778 12 6.59995 12C8.03212 12 9.40563 12.5689 10.4183 13.5816C11.431 14.5943 12 15.9678 12 17.4ZM6.59995 14.4C6.44082 14.4 6.28821 14.4632 6.17569 14.5757C6.06317 14.6883 5.99995 14.8409 5.99995 15V17.4C5.99995 17.5591 6.06317 17.7117 6.17569 17.8243C6.28821 17.9368 6.44082 18 6.59995 18C6.75908 18 6.91169 17.9368 7.02422 17.8243C7.13674 17.7117 7.19995 17.5591 7.19995 17.4V15C7.19995 14.8409 7.13674 14.6883 7.02422 14.5757C6.91169 14.4632 6.75908 14.4 6.59995 14.4ZM6.59995 20.55C6.79886 20.55 6.98963 20.471 7.13028 20.3303C7.27093 20.1897 7.34995 19.9989 7.34995 19.8C7.34995 19.6011 7.27093 19.4103 7.13028 19.2697C6.98963 19.129 6.79886 19.05 6.59995 19.05C6.40104 19.05 6.21027 19.129 6.06962 19.2697C5.92897 19.4103 5.84995 19.6011 5.84995 19.8C5.84995 19.9989 5.92897 20.1897 6.06962 20.3303C6.21027 20.471 6.40104 20.55 6.59995 20.55Z" fill="#333333"/>
</svg>
