<svg width="25" height="24" viewBox="0 0 25 24" fill="none" xmlns="http://www.w3.org/2000/svg">
<path d="M21.16 10.2C21.256 10.2 21.339 10.267 21.355 10.361C21.449 10.887 21.5 11.453 21.5 12C21.5028 14.2148 20.686 16.3524 19.207 18.001C19.1727 18.0391 19.1248 18.0622 19.0737 18.0656C19.0225 18.069 18.972 18.0522 18.933 18.019L16.488 15.949C16.4669 15.9309 16.4498 15.9087 16.4375 15.8838C16.4252 15.8588 16.4181 15.8317 16.4166 15.8039C16.4151 15.7762 16.4193 15.7484 16.4288 15.7223C16.4383 15.6962 16.453 15.6723 16.472 15.652C16.9643 15.116 17.3433 14.4861 17.586 13.8H12.7C12.647 13.8 12.5961 13.7789 12.5586 13.7414C12.5211 13.7039 12.5 13.653 12.5 13.6V10.4C12.5 10.29 12.59 10.2 12.7 10.2H21.16ZM14.973 16.8C15.009 16.7819 15.0495 16.7745 15.0895 16.7788C15.1296 16.783 15.1676 16.7987 15.199 16.824L17.767 18.997C17.7899 19.0161 17.8082 19.0401 17.8204 19.0673C17.8326 19.0945 17.8384 19.1241 17.8375 19.1539C17.8365 19.1837 17.8287 19.2129 17.8148 19.2393C17.8009 19.2656 17.7811 19.2884 17.757 19.306C16.2268 20.4101 14.387 21.003 12.5 21C11.0001 21.0001 9.524 20.6254 8.20579 19.9099C6.88759 19.1944 5.7691 18.1608 4.952 16.903C4.92525 16.8614 4.91513 16.8112 4.92365 16.7625C4.93218 16.7138 4.95872 16.6701 4.998 16.64L7.543 14.678C7.5664 14.6605 7.59324 14.6482 7.62175 14.6418C7.65026 14.6354 7.67979 14.6352 7.70841 14.641C7.73703 14.6469 7.76409 14.6587 7.7878 14.6758C7.81152 14.6928 7.83135 14.7147 7.846 14.74C8.54601 15.9288 9.67445 16.8045 10.9998 17.1876C12.3251 17.5707 13.7467 17.432 14.973 16.8ZM7.18 12.926C7.18697 12.9627 7.18355 13.0005 7.17012 13.0353C7.15669 13.0702 7.13379 13.1005 7.104 13.123L4.369 15.23C4.34487 15.2489 4.31662 15.262 4.28654 15.268C4.25645 15.274 4.22538 15.2729 4.1958 15.2647C4.16623 15.2566 4.13899 15.2416 4.11627 15.2209C4.09355 15.2003 4.07599 15.1746 4.065 15.146C3.69047 14.1394 3.49912 13.074 3.5 12C3.5 10.848 3.717 9.746 4.112 8.733C4.12309 8.70508 4.14046 8.68008 4.16275 8.65994C4.18504 8.6398 4.21166 8.62505 4.24056 8.61683C4.26946 8.60862 4.29986 8.60716 4.32941 8.61256C4.35897 8.61797 4.38688 8.63009 4.411 8.648L7.143 10.652C7.208 10.699 7.238 10.782 7.221 10.86C7.07414 11.5395 7.06088 12.2411 7.18 12.926ZM7.647 9.161C7.743 9.231 7.878 9.203 7.942 9.103C8.42967 8.33588 9.1031 7.70427 9.89988 7.26673C10.6967 6.82918 11.591 6.59985 12.5 6.6C13.757 6.59958 14.9744 7.04017 15.94 7.845C15.979 7.87802 16.0289 7.8953 16.0799 7.89345C16.131 7.8916 16.1795 7.87076 16.216 7.835L18.482 5.568C18.501 5.54912 18.5159 5.52657 18.5259 5.50173C18.5359 5.47688 18.5407 5.45026 18.54 5.4235C18.5394 5.39673 18.5333 5.37038 18.5221 5.34605C18.5109 5.32172 18.4949 5.29993 18.475 5.282C16.8324 3.81135 14.7048 2.99876 12.5 3C11.0196 2.99901 9.56193 3.3636 8.25635 4.0614C6.95076 4.75921 5.8377 5.76862 5.016 7C4.98838 7.0423 4.97806 7.0936 4.98718 7.14329C4.99629 7.19298 5.02416 7.23727 5.065 7.267L7.647 9.161Z" fill="#FEFDF3"/>
</svg>
