<svg width="28" height="29" viewBox="0 0 28 29" fill="none" xmlns="http://www.w3.org/2000/svg">
<path d="M24.2911 12.313L14.8678 2.85503C14.7542 2.74253 14.619 2.65324 14.4701 2.59231C14.3212 2.53137 14.1614 2.5 14.0001 2.5C13.8387 2.5 13.679 2.53137 13.53 2.59231C13.3811 2.65324 13.2459 2.74253 13.1323 2.85503L3.70903 12.325C3.48101 12.5508 3.30092 12.8187 3.17923 13.1134C3.05754 13.408 2.99666 13.7234 3.00014 14.0414V24.0995C2.99919 24.7139 3.2382 25.3053 3.66793 25.7519C4.09766 26.1985 4.6854 26.4662 5.31013 26.5H9.11121V15.6977C9.11121 15.3794 9.23998 15.0741 9.46919 14.849C9.6984 14.6239 10.0093 14.4975 10.3334 14.4975H17.6667C17.9909 14.4975 18.3017 14.6239 18.5309 14.849C18.7602 15.0741 18.8889 15.3794 18.8889 15.6977V26.5H22.69C23.3147 26.4662 23.9025 26.1985 24.3322 25.7519C24.7619 25.3053 25.0009 24.7139 25 24.0995V14.0414C25.001 13.3968 24.7468 12.777 24.2911 12.313Z" fill="#333333"/>
<path d="M11.6665 18.875H16.3332V27.0417H11.6665V18.875Z" fill="#333333"/>
</svg>
