<svg width="29" height="29" viewBox="0 0 29 29" fill="none" xmlns="http://www.w3.org/2000/svg">
<path fill-rule="evenodd" clip-rule="evenodd" d="M13.5762 20.75L13.5707 23.2537C13.5698 23.8412 13.5689 24.135 13.4333 24.3175C13.2978 24.5 13.0812 24.5 12.646 24.5H9.87101C6.38613 24.5 4.64369 24.5 3.56043 23.035C2.81367 22.0275 2.58226 20.5962 2.50943 18.2637C2.4956 17.8012 2.48823 17.5687 2.55184 17.415C2.61638 17.2612 2.86991 17.0688 3.37881 16.6825C3.66547 16.4658 3.90425 16.1493 4.07048 15.7656C4.2367 15.3819 4.32435 14.945 4.32435 14.5C4.32435 14.055 4.2367 13.6181 4.07048 13.2344C3.90425 12.8507 3.66547 12.5342 3.37881 12.3175C2.86991 11.9325 2.61545 11.7388 2.55184 11.585C2.48823 11.4313 2.4956 11.2 2.51035 10.7363C2.58226 8.40375 2.81459 6.97375 3.56043 5.965C4.64277 4.5 6.38521 4.5 9.87101 4.5H13.107C13.1675 4.49984 13.2275 4.51584 13.2834 4.5471C13.3394 4.57836 13.3903 4.62425 13.4332 4.68218C13.4761 4.7401 13.5101 4.8089 13.5334 4.88467C13.5567 4.96043 13.5687 5.04168 13.5689 5.12375L13.5762 8.25C13.5762 8.94 13.9902 9.5 14.5 9.5V12C13.9902 12 13.5762 12.56 13.5762 13.25V15.75C13.5762 16.44 13.9902 17 14.5 17V19.5C13.9902 19.5 13.5762 20.06 13.5762 20.75Z" fill="#333333"/>
<path opacity="0.5" d="M14.5 19.5173C15.4502 19.5173 16.2218 20.0788 16.2218 20.7707V23.2475C16.2218 23.8516 16.2218 24.1537 16.4881 24.3379C16.7527 24.5234 17.1583 24.5109 17.971 24.4858C21.1723 24.3868 23.1381 24.0709 24.5248 23.0619C25.9149 22.0517 26.3462 20.6153 26.482 18.2764C26.5077 17.8127 26.5215 17.5808 26.4029 17.4266C26.2844 17.2712 25.8101 17.0782 24.8616 16.6921C24.3273 16.4748 23.8822 16.1574 23.5724 15.7727C23.2626 15.388 23.0992 14.9499 23.0992 14.5037C23.0992 14.0575 23.2626 13.6193 23.5724 13.2346C23.8822 12.8499 24.3273 12.5325 24.8616 12.3152C25.8101 11.9279 26.2844 11.7349 26.4029 11.5807C26.5232 11.4253 26.5077 11.1934 26.482 10.7296C26.3462 8.39077 25.9149 6.95561 24.5231 5.94411C23.0161 4.84738 20.8218 4.57037 17.0964 4.50018C16.9825 4.49818 16.8693 4.51281 16.7633 4.54321C16.6573 4.57362 16.5607 4.61919 16.4792 4.67723C16.3977 4.73528 16.3329 4.80463 16.2887 4.88121C16.2445 4.95779 16.2217 5.04004 16.2218 5.12313V8.2366C16.2218 8.92848 15.4502 9.49001 14.5 9.49001V11.9968C14.7259 11.9965 14.9498 12.0287 15.1586 12.0915C15.3675 12.1544 15.5573 12.2466 15.7173 12.3631C15.8772 12.4795 16.0041 12.6178 16.0906 12.77C16.1772 12.9222 16.2218 13.0854 16.2218 13.2502V15.7571C16.2218 16.449 15.4502 17.0105 14.5 17.0105V19.5173Z" fill="black"/>
</svg>
