<svg width="15" height="17" viewBox="0 0 15 17" fill="none" xmlns="http://www.w3.org/2000/svg">
<path d="M7.50002 -0.000488281C6.05317 -0.000488281 4.66558 0.574271 3.6425 1.59735C2.61942 2.62043 2.04466 4.00802 2.04466 5.45487V8.20437C2.04477 8.32527 2.01676 8.44453 1.96283 8.55273L0.62471 11.2282C0.559344 11.3589 0.528479 11.5042 0.535046 11.6502C0.541613 11.7961 0.585394 11.938 0.662231 12.0624C0.739068 12.1867 0.846409 12.2893 0.974061 12.3604C1.10171 12.4316 1.24543 12.4689 1.39158 12.4689H13.6085C13.7546 12.4689 13.8983 12.4316 14.026 12.3604C14.1536 12.2893 14.261 12.1867 14.3378 12.0624C14.4146 11.938 14.4584 11.7961 14.465 11.6502C14.4716 11.5042 14.4407 11.3589 14.3753 11.2282L13.038 8.55273C12.9838 8.4446 12.9555 8.32533 12.9554 8.20437V5.45487C12.9554 4.00802 12.3806 2.62043 11.3575 1.59735C10.3345 0.574271 8.94687 -0.000488281 7.50002 -0.000488281ZM7.50002 14.8069C7.01632 14.8072 6.54445 14.6574 6.14944 14.3782C5.75443 14.0991 5.45573 13.7043 5.2945 13.2482H9.70554C9.54431 13.7043 9.24561 14.0991 8.8506 14.3782C8.45559 14.6574 7.98372 14.8072 7.50002 14.8069Z" fill="#FEFDF3"/>
</svg>
