<svg width="24" height="24" viewBox="0 0 24 24" fill="none" xmlns="http://www.w3.org/2000/svg">
<path d="M12 22C11.45 22 10.9793 21.8043 10.588 21.413C10.1967 21.0217 10.0007 20.5507 10 20H14C14 20.55 13.8043 21.021 13.413 21.413C13.0217 21.805 12.5507 22.0007 12 22ZM5 19C4.71667 19 4.47934 18.904 4.288 18.712C4.09667 18.52 4.00067 18.2827 4 18C3.99934 17.7173 4.09534 17.48 4.288 17.288C4.48067 17.096 4.718 17 5 17H6V10C6 9.03333 6.20834 8.13333 6.625 7.3C7.04167 6.46667 7.61667 5.775 8.35 5.225C8.71667 4.94167 9.1 4.91233 9.5 5.137C9.9 5.36167 10.075 5.75767 10.025 6.325C10.0083 6.425 10 6.53733 10 6.662V7C10 8.96667 10.6793 10.6293 12.038 11.988C13.3967 13.3467 15.0507 14.0257 17 14.025C17.2833 14.025 17.521 14.1127 17.713 14.288C17.905 14.4633 18.0007 14.684 18 14.95V17H19C19.2833 17 19.521 17.096 19.713 17.288C19.905 17.48 20.0007 17.7173 20 18C19.9993 18.2827 19.9033 18.5203 19.712 18.713C19.5207 18.9057 19.2833 19.0013 19 19H5ZM16.8 12C16.5667 12 16.3627 11.925 16.188 11.775C16.0133 11.625 15.9007 11.4333 15.85 11.2L15.7 10.5C15.5 10.4167 15.3127 10.3293 15.138 10.238C14.9633 10.1467 14.784 10.034 14.6 9.9L13.875 10.125C13.6583 10.1917 13.446 10.1833 13.238 10.1C13.03 10.0167 12.8673 9.88333 12.75 9.7L12.55 9.35C12.4333 9.15 12.3917 8.93333 12.425 8.7C12.4583 8.46667 12.5667 8.275 12.75 8.125L13.3 7.65C13.2667 7.43333 13.25 7.21667 13.25 7C13.25 6.78333 13.2667 6.56667 13.3 6.35L12.75 5.875C12.5667 5.725 12.4583 5.53767 12.425 5.313C12.3917 5.08833 12.4333 4.87567 12.55 4.675L12.775 4.3C12.8917 4.11667 13.05 3.98333 13.25 3.9C13.45 3.81667 13.6583 3.80833 13.875 3.875L14.6 4.1C14.7833 3.96667 14.9627 3.85433 15.138 3.763C15.3133 3.67167 15.5007 3.584 15.7 3.5L15.85 2.775C15.9 2.54167 16.0127 2.35433 16.188 2.213C16.3633 2.07167 16.5673 2.00067 16.8 2H17.2C17.4333 2 17.6377 2.075 17.813 2.225C17.9883 2.375 18.1007 2.56667 18.15 2.8L18.3 3.5C18.5 3.58333 18.6873 3.671 18.862 3.763C19.0367 3.855 19.216 3.96733 19.4 4.1L20.125 3.875C20.3417 3.80833 20.5543 3.81667 20.763 3.9C20.9717 3.98333 21.134 4.11667 21.25 4.3L21.45 4.65C21.5667 4.85 21.6083 5.06667 21.575 5.3C21.5417 5.53333 21.4333 5.725 21.25 5.875L20.7 6.35C20.7333 6.56667 20.75 6.78333 20.75 7C20.75 7.21667 20.7333 7.43333 20.7 7.65L21.25 8.125C21.4333 8.275 21.5417 8.46267 21.575 8.688C21.6083 8.91333 21.5667 9.12567 21.45 9.325L21.225 9.7C21.1083 9.88333 20.95 10.0167 20.75 10.1C20.55 10.1833 20.3417 10.1917 20.125 10.125L19.4 9.9C19.2167 10.0333 19.0377 10.146 18.863 10.238C18.6883 10.33 18.5007 10.4173 18.3 10.5L18.15 11.225C18.1 11.4583 17.9877 11.646 17.813 11.788C17.6383 11.93 17.434 12.0007 17.2 12H16.8ZM17 9C17.55 9 18.021 8.80433 18.413 8.413C18.805 8.02167 19.0007 7.55067 19 7C18.9993 6.44933 18.8037 5.97867 18.413 5.588C18.0223 5.19733 17.5513 5.00133 17 5C16.4487 4.99867 15.978 5.19467 15.588 5.588C15.198 5.98133 15.002 6.452 15 7C14.998 7.548 15.194 8.019 15.588 8.413C15.982 8.807 16.4527 9.00267 17 9Z" fill="#333333"/>
</svg>
