<svg width="28" height="29" viewBox="0 0 28 29" fill="none" xmlns="http://www.w3.org/2000/svg">
<path opacity="0.16" d="M17.6665 17.6567H10.3332C9.28041 17.6564 8.25564 18.0074 7.41134 18.6575C6.56704 19.3076 5.94832 20.222 5.64722 21.2647C6.67879 22.5117 7.95976 23.5125 9.40178 24.1982C10.8438 24.8839 12.4126 25.2381 13.9999 25.2365C15.5872 25.2381 17.1559 24.8839 18.598 24.1982C20.04 23.5125 21.321 22.5117 22.3525 21.2647C22.0514 20.222 21.4327 19.3076 20.5884 18.6575C19.7441 18.0074 18.7193 17.6564 17.6665 17.6567Z" fill="black"/>
<path d="M25 13.867C25.0035 16.1242 24.3539 18.331 23.1349 20.2037C22.1295 21.7538 20.7701 23.0239 19.1768 23.9018C17.5835 24.7796 15.8055 25.2381 14 25.2367C12.1945 25.2381 10.4165 24.7796 8.82321 23.9018C7.22993 23.0239 5.87049 21.7538 4.86511 20.2037C3.90778 18.7287 3.2981 17.0424 3.08495 15.28C2.8718 13.5175 3.06111 11.728 3.63769 10.0548C4.21428 8.38156 5.1621 6.87127 6.40519 5.64494C7.64828 4.41861 9.15205 3.51036 10.7959 2.993C12.4398 2.47565 14.1782 2.36357 15.8715 2.66577C17.5649 2.96796 19.1662 3.67602 20.5471 4.73317C21.928 5.79032 23.05 7.16717 23.8233 8.75334C24.5966 10.3395 24.9996 12.0909 25 13.867Z" stroke="#333333" stroke-width="3"/>
<path d="M15.2221 10.077C15.2221 10.412 15.0933 10.7334 14.8641 10.9703C14.6349 11.2072 14.324 11.3403 13.9999 11.3403V13.8669C14.9723 13.8669 15.905 13.4676 16.5926 12.7569C17.2802 12.0461 17.6665 11.0821 17.6665 10.077H15.2221ZM13.9999 11.3403C13.6757 11.3403 13.3648 11.2072 13.1356 10.9703C12.9064 10.7334 12.7776 10.412 12.7776 10.077H10.3332C10.3332 11.0821 10.7195 12.0461 11.4071 12.7569C12.0948 13.4676 13.0274 13.8669 13.9999 13.8669V11.3403ZM12.7776 10.077C12.7776 9.74195 12.9064 9.42063 13.1356 9.18371C13.3648 8.9468 13.6757 8.8137 13.9999 8.8137V6.28711C13.0274 6.28711 12.0948 6.6864 11.4071 7.39714C10.7195 8.10788 10.3332 9.07186 10.3332 10.077H12.7776ZM13.9999 8.8137C14.324 8.8137 14.6349 8.9468 14.8641 9.18371C15.0933 9.42063 15.2221 9.74195 15.2221 10.077H17.6665C17.6665 9.07186 17.2802 8.10788 16.5926 7.39714C15.905 6.6864 14.9723 6.28711 13.9999 6.28711V8.8137ZM5.6472 21.2648L4.47509 20.9047L4.28564 21.5654L4.71953 22.0872L5.6472 21.2648ZM22.3525 21.2648L23.2814 22.0872L23.7141 21.5654L23.5246 20.9047L22.3525 21.2648ZM10.3332 18.9201H17.6665V16.3935H10.3332V18.9201ZM10.3332 16.3935C9.01693 16.3931 7.73571 16.8319 6.68019 17.6448C5.62467 18.4576 4.85128 19.601 4.47509 20.9047L6.81809 21.6248C7.04416 20.8429 7.50839 20.1573 8.14172 19.67C8.77504 19.1826 9.54364 18.9196 10.3332 18.9201V16.3935ZM13.9999 23.9733C12.5888 23.9749 11.1942 23.6601 9.91228 23.0505C8.63037 22.4409 7.49171 21.551 6.57487 20.4423L4.71953 22.0872C5.86584 23.4724 7.28911 24.5842 8.89126 25.346C10.4934 26.1078 12.2363 26.5015 13.9999 26.4998V23.9733ZM17.6665 18.9201C19.3251 18.9201 20.7294 20.0596 21.1816 21.6261L23.5246 20.9047C23.1485 19.6012 22.3741 18.4579 21.3188 17.6451C20.2635 16.8323 18.9826 16.3933 17.6665 16.3935V18.9201ZM21.4249 20.4423C20.508 21.551 19.3693 22.4409 18.0874 23.0505C16.8055 23.6601 15.4109 23.9749 13.9999 23.9733V26.4998C15.7634 26.5015 17.5063 26.1078 19.1085 25.346C20.7106 24.5842 22.1351 23.4724 23.2814 22.0872L21.4249 20.4423Z" fill="#333333"/>
</svg>
